<svg width="28" height="20" viewBox="0 0 28 20" fill="none" xmlns="http://www.w3.org/2000/svg">
  <path fill-rule="evenodd" clip-rule="evenodd" d="M17.0328 0.366113C17.5209 -0.122038 18.3124 -0.122038 18.8006 0.366113L27.1339 8.6995C27.622 9.18766 27.622 9.979 27.1339 10.4672L18.8006 18.8005C18.3124 19.2887 17.5209 19.2887 17.0328 18.8005C16.5447 18.3123 16.5447 17.521 17.0328 17.0328L23.2322 10.8333H9.58334C8.39451 10.8333 6.58334 11.2003 5.10534 12.2645C3.69117 13.2827 2.50001 14.9907 2.50001 17.9167C2.50001 18.607 1.94034 19.1667 1.25001 19.1667C0.559671 19.1667 3.54648e-06 18.607 3.54648e-06 17.9167C3.54648e-06 14.176 1.58667 11.7173 3.64467 10.2355C5.63884 8.79966 7.99434 8.33333 9.58334 8.33333H23.2322L17.0328 2.13388C16.5447 1.64573 16.5447 0.854263 17.0328 0.366113Z" fill="white"/>
</svg>
